HIERARCHY
ROOT Model
{
	OFFSET 0 0 0
	CHANNELS 6 Xposition Yposition Zposition Zrotation Xrotation Yrotation
	JOINT Model1
	{
		OFFSET 0 -2.25479 2.99384
		CHANNELS 3 Zrotation Xrotation Yrotation
		JOINT Model2
		{
			OFFSET 12.111 0 0
			CHANNELS 3 Zrotation Xrotation Yrotation
			JOINT Model3
			{
				OFFSET 11.5502 0 0
				CHANNELS 3 Zrotation Xrotation Yrotation
				JOINT Model4
				{
					OFFSET 11.781 0 0
					CHANNELS 3 Zrotation Xrotation Yrotation
					JOINT Model5
					{
						OFFSET 20.0601 0 0
						CHANNELS 3 Zrotation Xrotation Yrotation
						JOINT Model6
						{
							OFFSET 11.1962 0 0
							CHANNELS 3 Zrotation Xrotation Yrotation
							End Site
							{
								OFFSET 0 0 0
							}
						}
					}
					JOINT Model7
					{
						OFFSET 10.8223 0.417534 3.51114
						CHANNELS 3 Zrotation Xrotation Yrotation
						JOINT Model8
						{
							OFFSET -6.07943 0 0
							CHANNELS 3 Zrotation Xrotation Yrotation
							JOINT Model9
							{
								OFFSET -0.277412 10.39 -0.051239
								CHANNELS 3 Zrotation Xrotation Yrotation
								JOINT Model10
								{
									OFFSET -3.4391 -0.282043 1.86679
									CHANNELS 3 Zrotation Xrotation Yrotation
									JOINT Model11
									{
										OFFSET 13.0269 0 0
										CHANNELS 3 Zrotation Xrotation Yrotation
										JOINT Model12
										{
											OFFSET 10.8866 0 0
											CHANNELS 3 Zrotation Xrotation Yrotation
											JOINT Model13
											{
												OFFSET 16.7317 0 0
												CHANNELS 3 Zrotation Xrotation Yrotation
												JOINT Model14
												{
													OFFSET 11.8292 0 0
													CHANNELS 3 Zrotation Xrotation Yrotation
													JOINT Model15
													{
														OFFSET 4.82751 -3.73566 -0.836517
														CHANNELS 3 Zrotation Xrotation Yrotation
														JOINT Model16
														{
															OFFSET 3.75311 -0.0582886 -0.0186462
															CHANNELS 3 Zrotation Xrotation Yrotation
															JOINT Model17
															{
																OFFSET 2.88689 0.0192337 0.014801
																CHANNELS 3 Zrotation Xrotation Yrotation
																End Site
																{
																	OFFSET 0 0 0
																}
															}
														}
													}
													JOINT Model18
													{
														OFFSET 9.72197 -3.06458 0.23877
														CHANNELS 3 Zrotation Xrotation Yrotation
														JOINT Model19
														{
															OFFSET 4.61131 0 0
															CHANNELS 3 Zrotation Xrotation Yrotation
															JOINT Model20
															{
																OFFSET 2.8969 -7.62939e-006 0
																CHANNELS 3 Zrotation Xrotation Yrotation
																End Site
																{
																	OFFSET 0 0 0
																}
															}
														}
													}
													JOINT Model21
													{
														OFFSET 9.54431 -0.745064 0.588928
														CHANNELS 3 Zrotation Xrotation Yrotation
														JOINT Model22
														{
															OFFSET 5.33978 0 0
															CHANNELS 3 Zrotation Xrotation Yrotation
															JOINT Model23
															{
																OFFSET 3.03619 7.62939e-006 0
																CHANNELS 3 Zrotation Xrotation Yrotation
																End Site
																{
																	OFFSET 0 0 0
																}
															}
														}
													}
													JOINT Model24
													{
														OFFSET 9.47758 1.51286 0.485107
														CHANNELS 3 Zrotation Xrotation Yrotation
														JOINT Model25
														{
															OFFSET 4.96136 7.62939e-006 0
															CHANNELS 3 Zrotation Xrotation Yrotation
															JOINT Model26
															{
																OFFSET 2.51965 0 0
																CHANNELS 3 Zrotation Xrotation Yrotation
																End Site
																{
																	OFFSET 0 0 0
																}
															}
														}
													}
													JOINT Model27
													{
														OFFSET 9.34247 3.34117 -0.239288
														CHANNELS 3 Zrotation Xrotation Yrotation
														JOINT Model28
														{
															OFFSET 3.28259 2.28882e-005 0
															CHANNELS 3 Zrotation Xrotation Yrotation
															JOINT Model29
															{
																OFFSET 2.1292 0 0
																CHANNELS 3 Zrotation Xrotation Yrotation
																End Site
																{
																	OFFSET 0 0 0
																}
															}
														}
													}
												}
											}
										}
									}
								}
							}
						}
					}
					JOINT Model30
					{
						OFFSET 10.8223 0.4179 -3.51108
						CHANNELS 3 Zrotation Xrotation Yrotation
						JOINT Model31
						{
							OFFSET 6.07943 0 0
							CHANNELS 3 Zrotation Xrotation Yrotation
							JOINT Model32
							{
								OFFSET 0.277412 -10.39 0.051239
								CHANNELS 3 Zrotation Xrotation Yrotation
								JOINT Model33
								{
									OFFSET 3.4391 0.282043 -1.86679
									CHANNELS 3 Zrotation Xrotation Yrotation
									JOINT Model34
									{
										OFFSET -13.0269 0 0
										CHANNELS 3 Zrotation Xrotation Yrotation
										JOINT Model35
										{
											OFFSET -10.8866 0 0
											CHANNELS 3 Zrotation Xrotation Yrotation
											JOINT Model36
											{
												OFFSET -16.7317 0 0
												CHANNELS 3 Zrotation Xrotation Yrotation
												JOINT Model37
												{
													OFFSET -11.8292 0 0
													CHANNELS 3 Zrotation Xrotation Yrotation
													JOINT Model38
													{
														OFFSET -4.82751 3.73566 0.836517
														CHANNELS 3 Zrotation Xrotation Yrotation
														JOINT Model39
														{
															OFFSET -3.75311 0.0582886 0.0186462
															CHANNELS 3 Zrotation Xrotation Yrotation
															JOINT Model40
															{
																OFFSET -2.88688 -0.0192337 -0.014801
																CHANNELS 3 Zrotation Xrotation Yrotation
																End Site
																{
																	OFFSET 0 0 0
																}
															}
														}
													}
													JOINT Model41
													{
														OFFSET -9.72197 3.06459 -0.23877
														CHANNELS 3 Zrotation Xrotation Yrotation
														JOINT Model42
														{
															OFFSET -4.6113 0 0
															CHANNELS 3 Zrotation Xrotation Yrotation
															JOINT Model43
															{
																OFFSET -2.8969 0 0
																CHANNELS 3 Zrotation Xrotation Yrotation
																End Site
																{
																	OFFSET 0 0 0
																}
															}
														}
													}
													JOINT Model44
													{
														OFFSET -9.5443 0.745064 -0.588928
														CHANNELS 3 Zrotation Xrotation Yrotation
														JOINT Model45
														{
															OFFSET -5.33978 0 0
															CHANNELS 3 Zrotation Xrotation Yrotation
															JOINT Model46
															{
																OFFSET -3.03619 -1.52588e-005 0
																CHANNELS 3 Zrotation Xrotation Yrotation
																End Site
																{
																	OFFSET 0 0 0
																}
															}
														}
													}
													JOINT Model47
													{
														OFFSET -9.47759 -1.51286 -0.485107
														CHANNELS 3 Zrotation Xrotation Yrotation
														JOINT Model48
														{
															OFFSET -4.96136 -1.52588e-005 0
															CHANNELS 3 Zrotation Xrotation Yrotation
															JOINT Model49
															{
																OFFSET -2.51966 0 0
																CHANNELS 3 Zrotation Xrotation Yrotation
																End Site
																{
																	OFFSET 0 0 0
																}
															}
														}
													}
													JOINT Model50
													{
														OFFSET -9.34246 -3.34118 0.239288
														CHANNELS 3 Zrotation Xrotation Yrotation
														JOINT Model51
														{
															OFFSET -3.2826 -2.28882e-005 0
															CHANNELS 3 Zrotation Xrotation Yrotation
															JOINT Model52
															{
																OFFSET -2.1292 0 0
																CHANNELS 3 Zrotation Xrotation Yrotation
																End Site
																{
																	OFFSET 0 0 0
																}
															}
														}
													}
												}
											}
										}
									}
								}
							}
						}
					}
				}
			}
		}
	}
	JOINT Model53
	{
		OFFSET 4.38026 -2.14632 -1.11517
		CHANNELS 3 Zrotation Xrotation Yrotation
		JOINT Model54
		{
			OFFSET 0 0 4.94998
			CHANNELS 3 Zrotation Xrotation Yrotation
			JOINT Model55
			{
				OFFSET 18.5642 0 0
				CHANNELS 3 Zrotation Xrotation Yrotation
				JOINT Model56
				{
					OFFSET 21.2884 0 0
					CHANNELS 3 Zrotation Xrotation Yrotation
					JOINT Model57
					{
						OFFSET 30.261 0 0
						CHANNELS 3 Zrotation Xrotation Yrotation
						JOINT Model58
						{
							OFFSET 11.7259 0 0
							CHANNELS 3 Zrotation Xrotation Yrotation
							JOINT Model59
							{
								OFFSET 10.682 0 0
								CHANNELS 3 Zrotation Xrotation Yrotation
								End Site
								{
									OFFSET 0 0 0
								}
							}
						}
					}
				}
			}
		}
	}
	JOINT Model60
	{
		OFFSET -4.38026 -2.14632 -1.11517
		CHANNELS 3 Zrotation Xrotation Yrotation
		JOINT Model61
		{
			OFFSET 0 0 -4.94998
			CHANNELS 3 Zrotation Xrotation Yrotation
			JOINT Model62
			{
				OFFSET -18.5642 0 0
				CHANNELS 3 Zrotation Xrotation Yrotation
				JOINT Model63
				{
					OFFSET -21.2884 0 0
					CHANNELS 3 Zrotation Xrotation Yrotation
					JOINT Model64
					{
						OFFSET -30.261 0 0
						CHANNELS 3 Zrotation Xrotation Yrotation
						JOINT Model65
						{
							OFFSET -11.7259 0 0
							CHANNELS 3 Zrotation Xrotation Yrotation
							JOINT Model66
							{
								OFFSET -10.682 0 0
								CHANNELS 3 Zrotation Xrotation Yrotation
								End Site
								{
									OFFSET 0 0 0
								}
							}
						}
					}
				}
			}
		}
	}
}
MOTION
Frames: 5
Frame Time: 0.033333
131.808 169.711 159.15 91.6067 6.33777 73.9696 -180 4.29621e-031 -90 1.90174 0.471826 -5.6285 3.84046 0.75399 -11.2698 3.84046 0.754427 -11.2699 -5.86407 0.311818 13.4562 5.44645 3.79149 6.34149 120.092 75.5343 58.4939 -0.588599 39.4673 12.6051 -167.277 84.4999 48.8109 142.347 -18.2319 29.909 1.82613e-005 -6.42893 3.15545e-005 -29.8287 37.5159 -0.0104199 3.29931e-007 55.7846 -4.11422e-007 -13.6098 5.42674 -43.3236 -72.0648 39.0385 39.3397 33.3638 2.10362 14.835 0.588947 0.308273 6.35287 -99.6409 81.413 100.35 -0.0181409 2.77199e-005 -0.117315 -0.124139 0.00241105 -0.799296 -79.8382 79.5773 80.5374 -0.000225774 -0.00022098 2.21824e-005 -0.000956223 0.000122817 -2.73373e-005 -66.7416 80.4058 67.2171 -0.00043713 1.58881e-005 -2.73311e-005 -0.000136601 -0.000109369 -5.46558e-005 -6.42159 81.2158 8.01779 -0.000218562 1.68359e-005 0.000212138 0.00090159 -0.000184899 -0.00021857 -59.9282 75.5373 58.5147 31.1568 1.6097 -4.67819 -167.277 84.4999 48.8109 95.7209 -15.9222 31.7263 9.06747e-008 13.2404 2.9934e-005 -45.973 14.0131 0.459101 5.64463e-007 20.3843 -1.66912e-007 -13.0317 0.994461 -8.65112 -72.0648 39.0385 39.3397 33.3638 2.10361 14.835 0.588946 0.308273 6.35287 -99.6409 81.413 100.35 -0.0181409 3.00994e-005 -0.117315 -0.124139 0.00241116 -0.799296 -79.8382 79.5773 80.5374 -0.000260655 -0.000218547 2.35604e-005 -0.000956238 0.000123022 -2.73343e-005 -66.7416 80.4058 67.2171 -0.000437142 1.49024e-005 -2.73291e-005 -0.000136617 -0.000109254 -5.46528e-005 -6.42159 81.2158 8.01779 -0.000218581 1.96093e-005 0.000212296 0.000901563 -0.000191204 -0.000218566 0.000811311 0.56661 89.91 -10.2538 36.9696 40.1219 3.48318e-005 29.4997 -2.75726e-005 21.7095 -27.6161 -13.7559 3.5077e-006 -42.5137 -6.23417e-007 -59.3691 -4.47134 2.23528 -36.8189 -3.98685 0.0920034 -180 -0.566579 -90.09 -29.5231 19.9554 4.87462 3.16872e-006 28.1141 -2.09778e-007 54.5566 -22.0672 -0.858879 -6.87288e-007 -33.203 -1.51643e-006 -53.994 0.284557 -0.634817 -36.2571 -2.14865 0.0699128 
133.515 169.346 159.451 91.8833 6.67702 74.8902 -180 4.29621e-031 -90 1.99959 0.465016 -5.46941 4.03461 0.73609 -10.9522 4.03461 0.736526 -10.9522 -6.91522 -0.46474 14.3224 6.72351 3.47608 6.17233 120.092 75.5343 58.4939 0.808392 37.671 11.3323 -167.277 84.4999 48.8109 143.588 -17.3928 33.2853 1.76755e-005 -5.36972 3.14943e-005 -21.8514 37.0939 -6.06215 3.25533e-007 55.4371 -4.07793e-007 -14.4965 5.5143 -41.481 -72.0648 39.0385 39.3397 33.3638 2.10362 14.835 0.588947 0.308273 6.35287 -99.6409 81.413 100.35 -0.0181409 2.77199e-005 -0.117315 -0.124139 0.00241105 -0.799296 -79.8382 79.5773 80.5374 -0.000225774 -0.00022098 2.21824e-005 -0.000956223 0.000122817 -2.73373e-005 -66.7416 80.4058 67.2171 -0.00043713 1.58881e-005 -2.73311e-005 -0.000136601 -0.000109369 -5.46558e-005 -6.42159 81.2158 8.01779 -0.000218562 1.68359e-005 0.000212138 0.00090159 -0.000184899 -0.00021857 -59.9282 75.5373 58.5147 30.756 2.05576 -4.58662 -167.277 84.4999 48.8109 92.8402 -21.3868 36.7034 2.03754e-006 9.56323 2.95489e-005 -27.4072 14.0222 0.221335 5.65058e-007 20.5755 -1.6712e-007 -15.927 1.5778 -11.2225 -72.0648 39.0385 39.3397 33.3638 2.10361 14.835 0.588946 0.308273 6.35287 -99.6409 81.413 100.35 -0.0181409 3.00994e-005 -0.117315 -0.124139 0.00241116 -0.799296 -79.8382 79.5773 80.5374 -0.000260655 -0.000218547 2.35604e-005 -0.000956238 0.000123022 -2.73343e-005 -66.7416 80.4058 67.2171 -0.000437142 1.49024e-005 -2.73291e-005 -0.000136617 -0.000109254 -5.46528e-005 -6.42159 81.2158 8.01779 -0.000218581 1.96093e-005 0.000212296 0.000901563 -0.000191204 -0.000218566 0.000811311 0.56661 89.91 -13.1657 35.3743 39.8154 3.44386e-005 28.7837 -2.73812e-005 31.2746 -27.1286 -6.43791 3.52982e-006 -40.9788 -6.08688e-007 -60.1568 -9.1334 5.12407 -40.5265 -2.11239 -0.314468 -180 -0.566579 -90.09 -28.6515 20.5242 6.77525 3.16883e-006 28.1403 -2.0983e-007 56.2545 -22.9805 -0.223495 -7.31281e-007 -34.5718 -1.54096e-006 -56.7776 -1.17295 0.296388 -35.387 0.301011 -0.00374463 
135.228 170.181 160.082 92.6201 6.70121 77.6793 -180 4.29621e-031 -90 2.44262 0.548765 -4.6146 4.92211 0.899004 -9.24904 4.92211 0.89944 -9.24908 -7.93285 -0.785404 13.4727 7.02278 3.06439 5.8626 120.092 75.5343 58.4939 1.8191 34.3372 9.85557 -167.277 84.4999 48.8109 142.92 -12.295 35.1367 1.30984e-005 2.97524 3.13984e-005 -10.1974 31.4248 -15.4421 2.4856e-007 48.211 -3.47162e-007 -15.4086 5.50308 -39.1203 -72.0648 39.0385 39.3397 33.3638 2.10362 14.835 0.588947 0.308273 6.35287 -99.6409 81.413 100.35 -0.0181409 2.77199e-005 -0.117315 -0.124139 0.00241105 -0.799296 -79.8382 79.5773 80.5374 -0.000225774 -0.00022098 2.21824e-005 -0.000956223 0.000122817 -2.73373e-005 -66.7416 80.4058 67.2171 -0.00043713 1.58881e-005 -2.73311e-005 -0.000136601 -0.000109369 -5.46558e-005 -6.42159 81.2158 8.01779 -0.000218562 1.68359e-005 0.000212138 0.00090159 -0.000184899 -0.00021857 -59.9282 75.5373 58.5147 25.9816 3.77523 -3.60468 -167.277 84.4999 48.8109 98.4917 -24.7376 42.5876 4.14481e-006 5.49254 2.92726e-005 -13.1177 14.1155 -0.0547616 5.66244e-007 20.9553 -1.6754e-007 -20.502 2.44906 -13.4347 -72.0648 39.0385 39.3397 33.3638 2.10361 14.835 0.588946 0.308273 6.35287 -99.6409 81.413 100.35 -0.0181409 3.00994e-005 -0.117315 -0.124139 0.00241116 -0.799296 -79.8382 79.5773 80.5374 -0.000260655 -0.000218547 2.35604e-005 -0.000956238 0.000123022 -2.73343e-005 -66.7416 80.4058 67.2171 -0.000437142 1.49024e-005 -2.73291e-005 -0.000136617 -0.000109254 -5.46528e-005 -6.42159 81.2158 8.01779 -0.000218581 1.96093e-005 0.000212296 0.000901563 -0.000191204 -0.000218566 0.000811311 0.56661 89.91 -15.8133 33.1484 35.5365 3.49108e-005 29.6424 -2.76116e-005 42.445 -24.9249 5.16335 3.57513e-006 -37.5974 -5.79982e-007 -55.9475 -13.6978 8.92948 -48.2263 2.46356 -0.500295 -180 -0.566579 -90.09 -26.8324 17.5487 6.86963 3.15001e-006 23.4191 -2.01637e-007 52.8306 -20.4465 -2.00076 -6.12789e-007 -30.7841 -1.47695e-006 -57.7577 -0.749236 -0.0564264 -36.122 -2.20856 0.0874607 
136.938 171.624 160.999 93.6646 7.76941 81.6208 -180 4.29621e-031 -90 3.02125 0.363919 -3.28389 6.05777 0.554336 -6.58212 6.05777 0.55477 -6.58216 -9.13592 -0.626163 12.9201 6.89781 3.21134 4.02915 120.092 75.5343 58.4939 2.50654 30.9628 8.58265 -167.277 84.4999 48.8109 143.768 -6.99801 36.8474 8.58093e-006 11.0919 3.1953e-005 -0.803292 25.8825 -20.2846 1.8956e-007 40.8219 -3.05711e-007 -15.9744 5.38362 -37.0486 -72.0648 39.0385 39.3397 33.3638 2.10362 14.835 0.588947 0.308273 6.35287 -99.6409 81.413 100.35 -0.0181409 2.77199e-005 -0.117315 -0.124139 0.00241105 -0.799296 -79.8382 79.5773 80.5374 -0.000225774 -0.00022098 2.21824e-005 -0.000956223 0.000122817 -2.73373e-005 -66.7416 80.4058 67.2171 -0.00043713 1.58881e-005 -2.73311e-005 -0.000136601 -0.000109369 -5.46558e-005 -6.42159 81.2158 8.01779 -0.000218562 1.68359e-005 0.000212138 0.00090159 -0.000184899 -0.00021857 -59.9282 75.5373 58.5147 19.2716 4.36679 -2.25875 -167.277 84.4999 48.8109 109.916 -24.5549 47.1307 5.95502e-006 1.94918 2.91551e-005 -3.64573 15.4927 -0.226737 5.7344e-007 23.2176 -1.70247e-007 -24.2284 3.18326 -14.7802 -72.0648 39.0385 39.3397 33.3638 2.10361 14.835 0.588946 0.308273 6.35287 -99.6409 81.413 100.35 -0.0181409 3.00994e-005 -0.117315 -0.124139 0.00241116 -0.799296 -79.8382 79.5773 80.5374 -0.000260655 -0.000218547 2.35604e-005 -0.000956238 0.000123022 -2.73343e-005 -66.7416 80.4058 67.2171 -0.000437142 1.49024e-005 -2.73291e-005 -0.000136617 -0.000109254 -5.46528e-005 -6.42159 81.2158 8.01779 -0.000218581 1.96093e-005 0.000212296 0.000901563 -0.000191204 -0.000218566 0.000811311 0.56661 89.91 -14.2397 23.7767 20.1636 3.1365e-005 22.8461 -2.60409e-005 51.458 -14.9392 13.1149 3.73325e-006 -23.072 -4.99482e-007 -52.9138 -10.5481 7.2026 -52.4157 3.88607 -0.502825 -180 -0.566579 -90.09 -23.7019 10.7824 4.67079 3.11594e-006 13.9846 -1.90678e-007 46.0568 -13.8933 -5.85623 -3.44797e-007 -21.0335 -1.35943e-006 -56.8594 -1.93784 0.788212 -38.438 -5.54083 -0.0755211 
138.583 173.265 162.037 93.9124 9.41435 86.2762 -180 4.29621e-031 -90 3.42316 -0.0230487 -1.79218 6.84367 -0.15354 -3.5798 6.84367 -0.153106 -3.57985 -11.1823 -0.58332 14.5043 7.13269 4.03732 0.00114419 120.092 75.5343 58.4939 2.59701 27.145 7.47817 -167.277 84.4999 48.8109 145.76 -0.262923 37.7686 2.72494e-006 20.947 3.3575e-005 3.75622 21.145 -19.6668 1.42438e-007 33.431 -2.77209e-007 -15.7064 5.11848 -35.9104 -72.0648 39.0385 39.3397 33.3638 2.10362 14.835 0.588947 0.308273 6.35287 -99.6409 81.413 100.35 -0.0181409 2.77199e-005 -0.117315 -0.124139 0.00241105 -0.799296 -79.8382 79.5773 80.5374 -0.000225774 -0.00022098 2.21824e-005 -0.000956223 0.000122817 -2.73373e-005 -66.7416 80.4058 67.2171 -0.00043713 1.58881e-005 -2.73311e-005 -0.000136601 -0.000109369 -5.46558e-005 -6.42159 81.2158 8.01779 -0.000218562 1.68359e-005 0.000212138 0.00090159 -0.000184899 -0.00021857 -59.9282 75.5373 58.5147 12.3363 2.85391 -1.18923 -167.277 84.4999 48.8109 123.624 -20.7084 47.9208 6.59396e-006 0.693526 2.91404e-005 -0.899392 16.7677 -0.291819 5.79925e-007 25.1928 -1.72906e-007 -23.9915 3.07054 -14.3618 -72.0648 39.0385 39.3397 33.3638 2.10361 14.835 0.588946 0.308273 6.35287 -99.6409 81.413 100.35 -0.0181409 3.00994e-005 -0.117315 -0.124139 0.00241116 -0.799296 -79.8382 79.5773 80.5374 -0.000260655 -0.000218547 2.35604e-005 -0.000956238 0.000123022 -2.73343e-005 -66.7416 80.4058 67.2171 -0.000437142 1.49024e-005 -2.73291e-005 -0.000136617 -0.000109254 -5.46528e-005 -6.42159 81.2158 8.01779 -0.000218581 1.96093e-005 0.000212296 0.000901563 -0.000191204 -0.000218566 0.000811311 0.56661 89.91 -17.8009 7.49736 4.59353 2.49347e-005 8.71866 -2.42786e-005 57.737 -3.88183 6.49126 3.88099e-006 -5.96326 -4.6203e-007 -52.7877 -1.96274 1.0875 -43.6761 -0.548226 -0.238461 -180 -0.566579 -90.09 -19.8671 5.58438 3.47388 3.09108e-006 6.54009 -1.86239e-007 38.5852 -7.60226 -6.79316 -1.1637e-007 -11.5581 -1.29511e-006 -54.9044 -3.52092 2.02368 -41.0286 -2.65415 -0.398492 
